<svg width="64" height="64" viewBox="0 0 64 64" fill="none" xmlns="http://www.w3.org/2000/svg" role="img" aria-label="Matcha Sous">
  <defs>
    <linearGradient id="fav-gold" x1="12" y1="9" x2="52" y2="55" gradientUnits="userSpaceOnUse">
      <stop offset="0" stop-color="#e3d2ad"/>
      <stop offset="0.5" stop-color="#c2a36b"/>
      <stop offset="1" stop-color="#9c7e45"/>
    </linearGradient>
  </defs>
  <rect width="64" height="64" rx="14" fill="#2f3a30"/>
  <path d="M56 32 A23 23 0 0 1 32 53 A20 20 0 0 1 14 32 A17 17 0 0 1 32 17 A13 13 0 0 1 44 32 A10 10 0 0 1 32 41 A7 7 0 0 1 27 32 A4 4 0 0 1 32 29"
        stroke="url(#fav-gold)" stroke-width="5.5" stroke-linecap="round" stroke-linejoin="round" fill="none"/>
</svg>
